<?xml version="1.0" standalone="no"?>
<!DOCTYPE svg PUBLIC "-//W3C//DTD SVG 20010904//EN"
 "http://www.w3.org/TR/2001/REC-SVG-20010904/DTD/svg10.dtd">
<svg version="1.0" xmlns="http://www.w3.org/2000/svg"
 width="256.000000pt" height="256.000000pt" viewBox="0 0 256.000000 256.000000"
 preserveAspectRatio="xMidYMid meet">

<g transform="translate(0.000000,256.000000) scale(0.100000,-0.100000)"
fill="#000000" stroke="none">
<path d="M592 2373 c-27 -5 -92 -67 -92 -88 0 -19 2 -19 -45 5 -81 41 -188 13
-226 -60 -23 -42 -24 -81 -4 -146 8 -27 15 -51 15 -54 0 -3 -20 -6 -45 -6 -85
-3 -155 -78 -155 -166 0 -67 27 -157 64 -213 18 -27 88 -107 154 -176 l122
-127 0 -51 c0 -39 4 -53 19 -61 21 -11 242 -14 304 -3 38 6 85 42 121 93 l17
25 17 -25 c9 -14 31 -40 48 -58 31 -31 35 -32 111 -32 45 0 84 5 90 11 8 8 10
35 6 79 -8 100 1 131 68 219 109 145 133 231 134 476 0 125 -3 155 -18 182
-31 58 -114 81 -176 49 -27 -15 -28 -14 -45 24 -39 89 -175 116 -258 51 -24
-19 -24 -19 -36 0 -28 44 -112 67 -190 52z m107 -78 c29 -15 40 -42 58 -150 7
-42 12 -51 32 -53 31 -5 38 8 46 85 9 83 27 103 93 103 70 0 83 -14 102 -111
16 -82 17 -84 45 -84 25 0 30 6 43 43 15 47 39 65 80 60 50 -6 62 -90 42 -301
-13 -131 -37 -198 -101 -282 -77 -101 -93 -139 -97 -227 l-4 -78 -38 0 c-34 0
-42 5 -67 41 -44 64 -61 79 -91 79 -31 0 -48 -14 -93 -77 -27 -38 -34 -42 -89
-48 -32 -4 -93 -4 -134 0 -76 7 -76 7 -76 37 0 41 -23 80 -64 112 -53 40 -220
228 -240 269 -22 49 -40 140 -32 171 10 41 45 66 90 66 33 0 47 -7 78 -37 32
-31 42 -36 56 -27 24 16 20 57 -16 141 -53 125 -54 171 -2 198 37 19 80 19
107 0 12 -9 32 -42 44 -75 24 -66 41 -78 69 -50 16 16 20 34 20 86 0 36 5 74
11 85 20 38 80 49 128 24z"/>
<path d="M583 1893 c-15 -6 -19 -349 -4 -371 4 -8 19 -12 32 -10 l24 3 3 170
c1 94 0 180 -3 193 -5 21 -24 27 -52 15z"/>
<path d="M764 1887 c-2 -7 -3 -94 -2 -192 l3 -180 24 -3 c13 -2 28 2 32 10 10
15 12 338 3 362 -7 19 -53 21 -60 3z"/>
<path d="M954 1887 c-2 -7 -3 -94 -2 -192 l3 -180 24 -3 c13 -2 28 2 32 10 10
15 12 338 3 362 -7 19 -53 21 -60 3z"/>
</g>
</svg>
