<?xml version="1.0" standalone="no"?>
<!DOCTYPE svg PUBLIC "-//W3C//DTD SVG 20010904//EN"
 "http://www.w3.org/TR/2001/REC-SVG-20010904/DTD/svg10.dtd">
<svg version="1.0" xmlns="http://www.w3.org/2000/svg"
 width="128px" height="128px" viewBox="0 0 256.000000 256.000000"
 preserveAspectRatio="xMidYMid meet">

<g transform="translate(0.000000,256.000000) scale(0.100000,-0.100000)"
fill="#000000" stroke="none">
<path d="M302 2545 c-75 -33 -81 -164 -18 -410 20 -77 38 -148 40 -158 3 -14
-6 -10 -37 16 -68 55 -104 70 -159 65 -99 -10 -156 -112 -113 -201 9 -18 43
-66 76 -107 34 -41 82 -111 107 -155 31 -52 78 -112 139 -173 92 -92 93 -94
93 -142 0 -34 4 -50 16 -54 9 -3 78 -6 154 -6 l139 0 34 32 c18 18 38 41 44
52 9 17 15 14 60 -33 48 -50 51 -51 107 -51 89 0 96 7 89 88 -7 81 6 116 76
211 27 37 58 89 70 117 34 88 53 336 31 415 -20 71 -96 108 -159 76 -31 -16
-31 -16 -45 17 -29 71 -152 102 -221 56 -29 -19 -30 -19 -50 0 -52 48 -136 59
-191 24 -21 -13 -22 -11 -34 54 -7 37 -22 92 -33 122 -51 140 -120 186 -215
145z m107 -73 c40 -39 65 -116 95 -287 37 -209 33 -195 60 -195 31 0 38 21 30
89 -7 66 11 97 63 107 27 5 37 1 62 -23 23 -24 30 -42 36 -89 9 -78 11 -84 34
-84 26 0 31 10 41 83 11 72 26 87 84 87 59 -1 75 -18 88 -91 6 -35 16 -70 23
-77 17 -18 42 -5 50 26 10 39 34 62 65 62 49 0 52 -15 48 -192 -4 -190 -18
-236 -106 -350 -56 -75 -72 -117 -72 -195 l0 -53 -32 0 c-28 0 -39 8 -75 55
-59 76 -77 73 -159 -27 -26 -31 -99 -43 -193 -32 -57 6 -61 8 -61 33 0 35 -4
39 -107 145 -50 51 -107 123 -131 163 -23 40 -70 107 -104 149 -67 85 -88 120
-88 147 0 27 54 77 83 77 38 0 115 -58 169 -127 49 -63 82 -79 94 -48 8 21
-20 181 -61 341 -64 246 -58 326 23 333 8 0 26 -11 41 -27z"/>
<path d="M942 1818 c-8 -8 -12 -60 -12 -169 0 -163 6 -188 44 -173 14 5 16 28
16 168 0 153 -5 186 -30 186 -3 0 -11 -5 -18 -12z"/>
<path d="M601 1806 c-19 -22 -3 -323 17 -331 36 -13 42 12 42 169 0 151 -5
176 -36 176 -6 0 -17 -6 -23 -14z"/>
<path d="M767 1814 c-4 -4 -7 -78 -7 -164 0 -165 6 -189 44 -174 15 6 16 26
14 173 -3 158 -4 166 -23 169 -12 2 -24 0 -28 -4z"/>
</g>
</svg>
